<svg width="600" height="300" viewBox="0 0 600 300" xmlns="http://www.w3.org/2000/svg">
  <defs>
    <linearGradient id="catgrad1" x1="0%" y1="0%" x2="100%" y2="100%">
      <stop offset="0%" stop-color="#1A1A2E" />
      <stop offset="100%" stop-color="#4B4B80" />
    </linearGradient>
    <radialGradient id="catglow1" cx="30%" cy="50%" r="50%" fx="30%" fy="50%">
      <stop offset="0%" stop-color="#8A4FFF" stop-opacity="0.8" />
      <stop offset="100%" stop-color="#8A4FFF" stop-opacity="0" />
    </radialGradient>
  </defs>
  <rect width="600" height="300" fill="url(#catgrad1)" />
  <circle cx="180" cy="150" r="100" fill="url(#catglow1)" opacity="0.6" />
  
  <!-- Meditation figure silhouette -->
  <path d="M180,80 C190,80 200,90 200,100 C200,110 190,120 180,120 C170,120 160,110 160,100 C160,90 170,80 180,80 Z" fill="white" opacity="0.9" />
  <path d="M140,130 C140,130 160,120 180,120 C200,120 220,130 220,130 C220,130 220,170 180,190 C140,170 140,130 140,130 Z" fill="white" opacity="0.9" />
  
  <!-- Decorative elements -->
  <circle cx="400" cy="100" r="20" fill="#8A4FFF" opacity="0.6" />
  <circle cx="450" cy="150" r="30" fill="#8A4FFF" opacity="0.4" />
  <circle cx="380" cy="200" r="25" fill="#8A4FFF" opacity="0.5" />
  
  <!-- Text placeholder -->
  <rect x="320" y="120" width="200" height="10" rx="5" fill="white" opacity="0.7" />
  <rect x="320" y="140" width="150" height="10" rx="5" fill="white" opacity="0.5" />
  <rect x="320" y="160" width="180" height="10" rx="5" fill="white" opacity="0.5" />
</svg>