<svg width="1200" height="400" viewBox="0 0 1200 400" xmlns="http://www.w3.org/2000/svg">
  <defs>
    <linearGradient id="dailygrad" x1="0%" y1="0%" x2="100%" y2="100%">
      <stop offset="0%" stop-color="#1A1A2E" />
      <stop offset="100%" stop-color="#4B4B80" />
    </linearGradient>
    <radialGradient id="dailyglow" cx="50%" cy="50%" r="70%" fx="50%" fy="50%">
      <stop offset="0%" stop-color="#8A4FFF" stop-opacity="0.6" />
      <stop offset="100%" stop-color="#8A4FFF" stop-opacity="0" />
    </radialGradient>
    <radialGradient id="dailyglow2" cx="20%" cy="30%" r="40%" fx="20%" fy="30%">
      <stop offset="0%" stop-color="#E94560" stop-opacity="0.4" />
      <stop offset="100%" stop-color="#E94560" stop-opacity="0" />
    </radialGradient>
    <radialGradient id="dailyglow3" cx="80%" cy="70%" r="40%" fx="80%" fy="70%">
      <stop offset="0%" stop-color="#4ECCA3" stop-opacity="0.4" />
      <stop offset="100%" stop-color="#4ECCA3" stop-opacity="0" />
    </radialGradient>
  </defs>
  
  <!-- Background -->
  <rect width="1200" height="400" fill="url(#dailygrad)" />
  <circle cx="600" cy="200" r="280" fill="url(#dailyglow)" opacity="0.8" />
  <circle cx="240" cy="120" r="160" fill="url(#dailyglow2)" opacity="0.6" />
  <circle cx="960" cy="280" r="160" fill="url(#dailyglow3)" opacity="0.6" />
  
  <!-- Meditation figure silhouette -->
  <g transform="translate(900, 200) scale(1.5)">
    <path d="M0,-40 C10,-40 20,-30 20,-20 C20,-10 10,0 0,0 C-10,0 -20,-10 -20,-20 C-20,-30 -10,-40 0,-40 Z" fill="white" opacity="0.9" />
    <path d="M-40,10 C-40,10 -20,0 0,0 C20,0 40,10 40,10 C40,10 40,50 0,70 C-40,50 -40,10 -40,10 Z" fill="white" opacity="0.9" />
  </g>
  
  <!-- Decorative elements -->
  <circle cx="300" cy="200" r="5" fill="white" opacity="0.8" />
  <circle cx="320" cy="240" r="3" fill="white" opacity="0.6" />
  <circle cx="280" cy="260" r="4" fill="white" opacity="0.7" />
  <circle cx="350" cy="180" r="3" fill="white" opacity="0.5" />
  <circle cx="270" cy="150" r="4" fill="white" opacity="0.6" />
  
  <circle cx="800" cy="150" r="5" fill="white" opacity="0.8" />
  <circle cx="850" cy="120" r="3" fill="white" opacity="0.6" />
  <circle cx="820" cy="100" r="4" fill="white" opacity="0.7" />
  <circle cx="780" cy="130" r="3" fill="white" opacity="0.5" />
  <circle cx="830" cy="170" r="4" fill="white" opacity="0.6" />
  
  <!-- Text placeholder -->
  <rect x="200" y="150" width="400" height="20" rx="10" fill="white" opacity="0.9" />
  <rect x="200" y="190" width="300" height="15" rx="7.5" fill="white" opacity="0.7" />
  <rect x="200" y="220" width="350" height="15" rx="7.5" fill="white" opacity="0.7" />
  <rect x="200" y="250" width="250" height="15" rx="7.5" fill="white" opacity="0.7" />
  
  <!-- Play button -->
  <circle cx="200" cy="300" r="30" fill="#8A4FFF" />
  <path d="M190,285 L220,300 L190,315 Z" fill="white" />
</svg>