<svg width="128" height="128" viewBox="0 0 128 128" fill="none" xmlns="http://www.w3.org/2000/svg">
  <path d="M64 8C62.4 8 61.1 9.3 61.1 10.9V21.1C61.1 22.7 62.4 24 64 24C65.6 24 66.9 22.7 66.9 21.1V10.9C66.9 9.3 65.6 8 64 8Z" fill="white"/>
  <path d="M64 104C65.6 104 66.9 102.7 66.9 101.1V90.9C66.9 89.3 65.6 88 64 88C62.4 88 61.1 89.3 61.1 90.9V101.1C61.1 102.7 62.4 104 64 104Z" fill="white"/>
  <path d="M32 64C32 65.6 33.3 66.9 34.9 66.9H45.1C46.7 66.9 48 65.6 48 64C48 62.4 46.7 61.1 45.1 61.1H34.9C33.3 61.1 32 62.4 32 64Z" fill="white"/>
  <path d="M82.9 66.9H93.1C94.7 66.9 96 65.6 96 64C96 62.4 94.7 61.1 93.1 61.1H82.9C81.3 61.1 80 62.4 80 64C80 65.6 81.3 66.9 82.9 66.9Z" fill="white"/>
  <path d="M40.5 40.5C41.7 41.7 43.5 41.7 44.7 40.5C45.9 39.3 45.9 37.5 44.7 36.3L37.7 29.3C36.5 28.1 34.7 28.1 33.5 29.3C32.3 30.5 32.3 32.3 33.5 33.5L40.5 40.5Z" fill="white"/>
  <path d="M40.5 87.5L33.5 94.5C32.3 95.7 32.3 97.5 33.5 98.7C34.7 99.9 36.5 99.9 37.7 98.7L44.7 91.7C45.9 90.5 45.9 88.7 44.7 87.5C43.5 86.3 41.7 86.3 40.5 87.5Z" fill="white"/>
  <path d="M87.5 40.5L94.5 33.5C95.7 32.3 95.7 30.5 94.5 29.3C93.3 28.1 91.5 28.1 90.3 29.3L83.3 36.3C82.1 37.5 82.1 39.3 83.3 40.5C84.5 41.7 86.3 41.7 87.5 40.5Z" fill="white"/>
  <path d="M87.5 87.5C86.3 86.3 84.5 86.3 83.3 87.5C82.1 88.7 82.1 90.5 83.3 91.7L90.3 98.7C91.5 99.9 93.3 99.9 94.5 98.7C95.7 97.5 95.7 95.7 94.5 94.5L87.5 87.5Z" fill="white"/>
  <path d="M64 32C46.3 32 32 46.3 32 64C32 81.7 46.3 96 64 96C81.7 96 96 81.7 96 64C96 46.3 81.7 32 64 32ZM64 90.9C49.1 90.9 37.1 78.9 37.1 64C37.1 49.1 49.1 37.1 64 37.1C78.9 37.1 90.9 49.1 90.9 64C90.9 78.9 78.9 90.9 64 90.9Z" fill="white"/>
  <path d="M64 48C55.2 48 48 55.2 48 64C48 72.8 55.2 80 64 80C72.8 80 80 72.8 80 64C80 55.2 72.8 48 64 48ZM64 74.9C58 74.9 53.1 70 53.1 64C53.1 58 58 53.1 64 53.1C70 53.1 74.9 58 74.9 64C74.9 70 70 74.9 64 74.9Z" fill="white"/>
  <path d="M64 58.9C61.2 58.9 58.9 61.2 58.9 64C58.9 66.8 61.2 69.1 64 69.1C66.8 69.1 69.1 66.8 69.1 64C69.1 61.2 66.8 58.9 64 58.9Z" fill="white"/>
</svg>