<svg width="512" height="512" viewBox="0 0 512 512" fill="none" xmlns="http://www.w3.org/2000/svg">
  <rect width="512" height="512" rx="128" fill="#1A1A2E"/>
  <circle cx="256" cy="256" r="160" fill="url(#paint0_radial_0_1)"/>
  <path d="M256 128C250.4 128 245.6 132.8 245.6 138.4V169.6C245.6 175.2 250.4 180 256 180C261.6 180 266.4 175.2 266.4 169.6V138.4C266.4 132.8 261.6 128 256 128Z" fill="white"/>
  <path d="M256 384C261.6 384 266.4 379.2 266.4 373.6V342.4C266.4 336.8 261.6 332 256 332C250.4 332 245.6 336.8 245.6 342.4V373.6C245.6 379.2 250.4 384 256 384Z" fill="white"/>
  <path d="M138.4 256C138.4 261.6 143.2 266.4 148.8 266.4H180C185.6 266.4 190.4 261.6 190.4 256C190.4 250.4 185.6 245.6 180 245.6H148.8C143.2 245.6 138.4 250.4 138.4 256Z" fill="white"/>
  <path d="M332 266.4H363.2C368.8 266.4 373.6 261.6 373.6 256C373.6 250.4 368.8 245.6 363.2 245.6H332C326.4 245.6 321.6 250.4 321.6 256C321.6 261.6 326.4 266.4 332 266.4Z" fill="white"/>
  <path d="M176 176C180.8 180.8 188 180.8 192.8 176C197.6 171.2 197.6 164 192.8 159.2L170.8 137.2C166 132.4 158.8 132.4 154 137.2C149.2 142 149.2 149.2 154 154L176 176Z" fill="white"/>
  <path d="M176 336L154 358C149.2 362.8 149.2 370 154 374.8C158.8 379.6 166 379.6 170.8 374.8L192.8 352.8C197.6 348 197.6 340.8 192.8 336C188 331.2 180.8 331.2 176 336Z" fill="white"/>
  <path d="M336 176L358 154C362.8 149.2 362.8 142 358 137.2C353.2 132.4 346 132.4 341.2 137.2L319.2 159.2C314.4 164 314.4 171.2 319.2 176C324 180.8 331.2 180.8 336 176Z" fill="white"/>
  <path d="M336 336C331.2 331.2 324 331.2 319.2 336C314.4 340.8 314.4 348 319.2 352.8L341.2 374.8C346 379.6 353.2 379.6 358 374.8C362.8 370 362.8 362.8 358 358L336 336Z" fill="white"/>
  <path d="M256 192C221.2 192 192 221.2 192 256C192 290.8 221.2 320 256 320C290.8 320 320 290.8 320 256C320 221.2 290.8 192 256 192ZM256 304C230.4 304 208 281.6 208 256C208 230.4 230.4 208 256 208C281.6 208 304 230.4 304 256C304 281.6 281.6 304 256 304Z" fill="white"/>
  <path d="M256 224C238.4 224 224 238.4 224 256C224 273.6 238.4 288 256 288C273.6 288 288 273.6 288 256C288 238.4 273.6 224 256 224ZM256 272C247.2 272 240 264.8 240 256C240 247.2 247.2 240 256 240C264.8 240 272 247.2 272 256C272 264.8 264.8 272 256 272Z" fill="white"/>
  <path d="M256 248C251.6 248 248 251.6 248 256C248 260.4 251.6 264 256 264C260.4 264 264 260.4 264 256C264 251.6 260.4 248 256 248Z" fill="white"/>
  <defs>
    <radialGradient id="paint0_radial_0_1" cx="0" cy="0" r="1" gradientUnits="userSpaceOnUse" gradientTransform="translate(256 256) rotate(90) scale(160)">
      <stop offset="0" stop-color="#9D4EDD"/>
      <stop offset="1" stop-color="#6C2BD9"/>
    </radialGradient>
  </defs>
</svg>